<?xml version="1.0" standalone="no"?>
<!DOCTYPE svg PUBLIC "-//W3C//DTD SVG 20010904//EN"
 "http://www.w3.org/TR/2001/REC-SVG-20010904/DTD/svg10.dtd">
<svg version="1.0" xmlns="http://www.w3.org/2000/svg"
 width="593.000000pt" height="174.000000pt" viewBox="0 0 593.000000 174.000000"
 preserveAspectRatio="xMidYMid meet">

<g transform="translate(0.000000,174.000000) scale(0.100000,-0.100000)"
fill="#000000" stroke="none">
<path d="M2307 1474 c-4 -4 -7 -227 -7 -495 0 -473 1 -489 19 -499 29 -15 116
-13 130 4 8 9 10 149 9 502 l-3 489 -70 3 c-39 1 -74 0 -78 -4z"/>
<path d="M107 1438 c-16 -12 -17 -44 -15 -483 l3 -470 80 0 80 0 3 178 2 179
93 -4 c68 -2 100 -8 120 -21 19 -12 53 -69 107 -177 l80 -160 90 0 c85 0 90 1
90 21 0 21 -134 287 -172 341 l-19 28 28 11 c47 17 111 88 129 142 21 63 21
181 0 244 -20 60 -81 123 -151 155 -47 21 -65 23 -290 26 -187 3 -244 1 -258
-10z m491 -185 c62 -53 63 -163 1 -215 -40 -33 -81 -40 -224 -36 l-110 3 -3
138 -3 137 154 0 c152 0 153 0 185 -27z"/>
<path d="M4033 1342 c-7 -4 -13 -38 -15 -82 l-3 -75 -65 -5 -65 -5 0 -65 0
-65 65 -5 65 -5 5 -210 c4 -187 7 -215 26 -256 23 -50 59 -80 114 -97 49 -16
154 -26 185 -18 25 6 26 9 23 74 l-3 67 -64 7 c-50 6 -70 13 -90 33 -26 25
-26 27 -29 215 l-3 189 93 3 93 3 0 65 0 65 -90 5 -90 5 -5 70 c-3 39 -9 76
-14 83 -8 13 -113 17 -133 4z"/>
<path d="M4693 1220 c3 -49 14 -83 41 -137 39 -75 67 -108 130 -154 l38 -28
37 18 c20 10 68 30 106 44 39 14 99 38 134 54 l64 29 -64 24 c-96 35 -192 86
-206 108 -6 11 -15 36 -18 56 -8 42 -16 44 -169 48 l-98 3 5 -65z"/>
<path d="M1083 1186 c-42 -14 -98 -48 -121 -76 -7 -8 -24 -37 -37 -65 -23 -47
-25 -60 -25 -220 0 -144 3 -176 19 -211 50 -111 135 -156 291 -157 131 -1 196
19 260 82 68 65 68 92 0 126 -27 14 -54 25 -60 25 -5 0 -22 -14 -37 -31 -76
-86 -229 -93 -292 -13 -17 22 -21 38 -19 78 l3 51 219 3 c141 1 224 6 233 13
21 18 17 194 -6 244 -27 60 -68 103 -125 132 -44 23 -65 27 -156 30 -69 2
-119 -2 -147 -11z m226 -141 c37 -19 61 -62 61 -110 l0 -35 -155 0 -155 0 0
35 c0 88 68 139 172 130 26 -2 61 -11 77 -20z"/>
<path d="M1780 1191 c-108 -35 -196 -123 -171 -170 10 -18 77 -51 104 -51 7 0
29 17 50 39 49 52 130 67 203 36 39 -16 64 -62 64 -120 l0 -35 -128 0 c-242 0
-312 -50 -312 -225 0 -82 30 -142 86 -173 81 -44 273 -51 419 -16 99 24 97 17
93 304 -3 228 -5 248 -25 285 -25 47 -64 86 -113 111 -39 20 -223 30 -270 15z
m248 -504 c2 -39 -2 -74 -8 -82 -6 -7 -43 -16 -83 -19 -125 -11 -187 18 -187
88 0 68 37 86 170 83 l105 -2 3 -68z"/>
<path d="M2744 1182 c-86 -30 -137 -81 -160 -159 -21 -68 -19 -337 2 -400 21
-64 75 -118 144 -144 70 -28 218 -30 300 -6 95 28 182 123 149 163 -14 17 -82
54 -98 54 -6 0 -26 -16 -46 -36 -44 -44 -91 -64 -150 -64 -100 0 -155 49 -155
136 l0 54 223 0 c160 0 226 3 235 12 17 17 15 164 -3 224 -19 64 -60 113 -126
149 -49 26 -65 30 -159 32 -82 3 -116 -1 -156 -15z m234 -136 c34 -17 62 -70
62 -115 l0 -31 -155 0 -155 0 0 39 c0 53 35 102 85 118 48 15 123 10 163 -11z"/>
<path d="M3419 1187 c-63 -23 -104 -55 -127 -95 -63 -112 -21 -252 89 -296 22
-9 86 -23 142 -32 124 -20 163 -35 179 -69 26 -58 -59 -111 -165 -102 -65 6
-101 25 -125 68 -10 16 -23 31 -31 34 -19 7 -106 -22 -121 -41 -18 -21 5 -70
56 -121 57 -56 127 -77 254 -76 146 1 227 40 269 127 43 93 16 214 -58 263
-43 29 -82 39 -201 54 -132 15 -171 42 -156 105 12 46 111 68 196 44 21 -6 49
-27 70 -51 l35 -40 57 21 c31 11 59 28 62 36 9 22 -21 80 -57 110 -66 55 -105
68 -222 71 -74 2 -122 -1 -146 -10z"/>
<path d="M5597 884 c-3 -4 -74 -34 -158 -68 -83 -33 -151 -65 -151 -71 0 -5
42 -25 94 -44 51 -18 95 -37 98 -40 3 -3 19 -14 35 -23 49 -27 67 -60 70 -122
2 -60 9 -73 40 -79 11 -2 30 -9 43 -15 12 -7 27 -10 32 -7 6 3 10 0 10 -7 0
-9 3 -9 10 2 8 13 10 12 10 -2 0 -10 5 -18 11 -18 5 0 7 4 4 10 -11 18 30 -3
47 -24 17 -21 17 -21 24 -1 4 11 12 23 18 27 7 5 11 49 10 115 0 101 -2 112
-32 170 -37 72 -88 132 -148 174 -43 30 -56 34 -67 23z"/>
</g>
</svg>
